<?xml version="1.0" encoding="UTF-8" standalone="no"?>
<svg
   version="1.1"
   id="Layer_1"
   x="0px"
   y="0px"
   width="1200"
   viewBox="0 0 1200 630"
   enable-background="new 0 0 1024 1024"
   xml:space="preserve"
   sodipodi:docname="logo_preview.svg"
   height="630"
   inkscape:version="1.2.2 (b0a8486541, 2022-12-01)"
   inkscape:export-filename="logo_preview.png"
   inkscape:export-xdpi="96"
   inkscape:export-ydpi="96"
   xmlns:inkscape="http://www.inkscape.org/namespaces/inkscape"
   xmlns:sodipodi="http://sodipodi.sourceforge.net/DTD/sodipodi-0.dtd"
   xmlns="http://www.w3.org/2000/svg"
   xmlns:svg="http://www.w3.org/2000/svg"><defs
   id="defs1005"><inkscape:path-effect
     effect="bspline"
     id="path-effect4210"
     is_visible="true"
     lpeversion="1"
     weight="33.333333"
     steps="2"
     helper_size="0"
     apply_no_weight="true"
     apply_with_weight="true"
     only_selected="false" /><inkscape:path-effect
     effect="bspline"
     id="path-effect4044"
     is_visible="true"
     lpeversion="1"
     weight="33.333333"
     steps="2"
     helper_size="0"
     apply_no_weight="true"
     apply_with_weight="true"
     only_selected="false" /></defs><sodipodi:namedview
   id="namedview1003"
   pagecolor="#ffffff"
   bordercolor="#000000"
   borderopacity="0.25"
   inkscape:showpageshadow="2"
   inkscape:pageopacity="0.0"
   inkscape:pagecheckerboard="0"
   inkscape:deskcolor="#d1d1d1"
   showgrid="false"
   inkscape:zoom="0.55004853"
   inkscape:cx="235.43377"
   inkscape:cy="423.59899"
   inkscape:window-width="1920"
   inkscape:window-height="1014"
   inkscape:window-x="1920"
   inkscape:window-y="1109"
   inkscape:window-maximized="1"
   inkscape:current-layer="g390" />




















































































































































































































































































































































































































































































































<rect
   style="fill:#ffffff;stroke:none;stroke-width:25.0848;stroke-linecap:round;stroke-linejoin:round;stop-color:#000000"
   id="rect503"
   width="1200"
   height="630"
   x="0"
   y="0" /><g
   id="g384"
   transform="matrix(1.3746754,0,0,1.4217823,-511.16311,3.2027365)"><path
     style="fill:#7ab7a9;fill-opacity:1;stroke:none;stroke-width:0.748219"
     d="m 555.08328,210.58745 c 3.67899,4.53346 10.02687,9.10956 12.58503,14.21915 2.43695,4.86641 -2.01944,8.66063 -3.94835,12.71672 -4.25586,8.94944 -3.56301,17.37588 -13.87421,22.20488 -9.69838,4.54169 -19.35863,1.27497 -29.1805,3.80394 -15.55097,4.00372 -20.80945,22.19965 -16.88878,36.09331 9.47768,33.58304 44.23165,58.76808 67.76761,82.30404 6.61725,6.61724 13.50535,12.90976 20.20191,19.44246 3.12456,3.04899 6.7796,5.19937 7.48218,9.73806 -10.31195,-0.21998 -19.42824,-8.02315 -27.68409,-13.46569 C 552.85284,385.32191 534.58586,372.84013 516.92416,359.05196 454.00872,309.9359 388.9788,238.40846 388.9788,153.72284 c 0,-49.67497 20.5371,-99.17113 69.58432,-118.630046 42.84898,-16.999749 106.24775,-6.369061 125.36174,40.815319 8.19898,20.240815 -0.25963,38.823567 3.5271,59.109267 1.61391,8.64716 5.16346,16.81097 8.97638,24.69121 2.41674,4.99361 6.21694,10.65838 5.64306,16.46081 -1.25327,12.68006 -14.16003,10.34487 -21.24117,16.41442 -2.19303,1.87952 -0.72952,8.86639 -2.42124,12.00666 -4.43469,8.2319 -15.48289,5.99697 -23.32571,5.99697 m 5.23753,-146.650835 c -6.01942,23.208251 -19.96095,42.319245 -40.40377,55.197585 -17.44996,10.99208 -39.07796,16.40768 -49.18863,36.08508 -14.60373,28.42258 -1.69172,74.46795 26.74207,90.27332 6.60752,3.673 15.78891,3.36997 23.19477,4.05833 7.61088,0.70782 15.04069,2.64645 22.44656,-0.41676 10.24233,-4.23716 14.03431,-18.92169 8.6389,-28.07166 -2.30152,-3.9042 -9.29808,-11.49488 -5.82787,-16.29021 3.69545,-5.10585 14.86261,-1.44257 20.33957,-4.33967 4.98538,-2.63672 1.0101,-9.51509 4.16982,-13.75525 4.84621,-6.50351 14.88431,-3.90046 18.71594,-12.00517 1.63037,-3.44928 -0.5477,-6.66662 -2.07631,-9.72609 -3.26747,-6.53943 -6.48106,-13.14021 -8.47357,-20.2019 -7.70366,-27.30474 6.05758,-58.506195 -18.27748,-80.807605 m -3.74035,69.425705 c 8.30149,-0.25514 9.0961,13.2936 0.74672,13.5016 -8.06429,0.19978 -9.02501,-13.24795 -0.74672,-13.5016"
     id="path3868"
     sodipodi:nodetypes="ccccccsccccsccccccscccccccccccccccccc" /><path
     style="fill:#eb938a;fill-opacity:1;stroke:none;stroke-width:0.748219;stroke-opacity:1"
     d="m 637.05806,366.30031 c 4.13897,-14.04006 5.40585,-23.5397 10.25274,-33.84603 5.00873,-10.65059 7.59563,-16.20812 14.90187,-23.58047 6.76328,-6.82442 11.04729,-10.01453 18.72121,-13.9408 5.4478,-2.78734 6.53704,-4.37858 4.70493,-6.87344 -0.66995,-0.9123 -3.12923,-1.65947 -8.07159,-2.45221 -8.58588,-1.37717 -15.15485,-4.27166 -19.45614,-8.57294 -3.46527,-3.4653 -6.67494,-9.73746 -7.27594,-14.21825 -0.32889,-2.45206 -0.0299,-3.33144 1.94852,-5.73165 3.77289,-4.57715 3.15131,-6.37333 -3.46169,-10.00301 -3.90542,-2.14357 -3.98542,-3.32777 -0.56116,-8.30582 1.44032,-2.09382 2.61876,-4.29268 2.61876,-4.88632 0,-0.59363 -1.34679,-3.31236 -2.99287,-6.04164 -4.69831,-7.78985 -3.83897,-11.53326 2.8948,-12.61002 6.52159,-1.0428 8.74947,-5.04404 10.58399,-19.00842 1.22006,-9.28711 2.07932,-12.40861 5.26435,-19.12417 6.5273,-13.76273 20.53231,-24.37449 38.55877,-29.21643 7.97407,-2.14193 24.86213,-1.98181 32.85842,0.3114 32.66176,9.36703 51.91185,39.27212 45.42278,70.56449 -4.0005,19.29162 -14.63905,35.68142 -29.98165,46.18985 -3.66425,2.5096 -6.86984,5.10398 -7.12356,5.76518 -0.94979,2.4751 -0.408,10.3284 1.14739,16.6323 0.88485,3.58591 1.73273,6.66632 1.88432,6.84537 1.06389,1.25656 16.33241,-17.81882 27.03553,-33.77638 16.93473,-25.24833 27.71079,-50.77186 32.47223,-76.91133 2.15876,-11.85125 2.31656,-36.49802 0.30415,-47.51187 -6.13876,-33.59875 -24.71485,-59.1433 -53.57806,-73.676996 -13.80994,-6.953794 -24.60501,-9.645585 -41.15201,-10.261369 -31.58091,-1.175227 -55.24691,2.068214 -78.85711,24.789371 -18.7578,18.05152 -24.12753,33.136054 -26.08984,49.997934 -1.49967,12.88637 -0.31839,17.17523 2.06281,27.85652 8.84641,39.68213 30.06318,51.93248 12.30085,91.60251 -17.76234,39.67002 -61.58242,24.00281 -81.94072,25.52678 -14.28712,1.06948 -25.72339,3.25368 -28.11438,8.65889 -2.32932,5.26589 -1.7138,14.56692 1.41396,21.36613 7.35992,15.99908 25.02411,37.03794 57.2315,68.1654 25.34242,24.49263 33.52135,31.2183 37.96423,31.2183 1.29493,0 22.25246,-21.86014 26.10861,-34.94086 z M 680.21999,218.3357 c 2.31486,-2.31483 2.43865,-6.17482 0.2858,-8.91173 -1.19615,-1.5206 -2.21027,-1.9714 -4.43501,-1.9714 -2.22474,0 -3.23886,0.4508 -4.435,1.9714 -4.82623,6.13554 3.11558,14.38039 8.58421,8.91173 z"
     id="path3958"
     sodipodi:nodetypes="ssssssssssssssssssssssssssssssszsssssssssss" /><g
     id="g3013"
     transform="matrix(0.69430861,0.2788665,-0.2788665,0.69430861,357.46241,-158.45519)"><path
       style="fill:none;fill-opacity:1;stroke:#7ab7a9;stroke-width:15;stroke-linecap:round;stroke-linejoin:round;stroke-dasharray:none;stroke-opacity:1;stop-color:#000000"
       d="m 497.79392,326.0737 c 6.97191,12.05847 13.94326,24.11594 14.67126,35.41746 0.728,11.30152 -4.78689,21.84824 -10.30172,32.39486"
       id="path4042"
       inkscape:path-effect="#path-effect4044"
       inkscape:original-d="m 497.79392,326.0737 c 6.97265,12.05804 13.94399,24.11552 20.91404,36.17245 -5.51353,10.54718 -16.5445,31.63987 -16.5445,31.63987"
       sodipodi:nodetypes="ccc" /><path
       style="fill:none;fill-opacity:1;stroke:#7ab7a9;stroke-width:15;stroke-linecap:round;stroke-linejoin:round;stroke-dasharray:none;stroke-opacity:1;stop-color:#000000"
       d="m 472.45296,341.3285 c 4.08786,7.09036 8.17517,14.17977 8.63794,20.69829 0.46276,6.51852 -2.69856,12.46736 -5.85982,18.4161"
       id="path4208"
       inkscape:path-effect="#path-effect4210"
       inkscape:original-d="m 472.45296,341.3285 c 4.0886,7.08994 8.17591,14.17934 12.26191,21.26818 -3.15996,5.94929 -9.48379,17.84621 -9.48379,17.84621"
       sodipodi:nodetypes="ccc" /></g></g><g
   id="g390"
   transform="translate(258.15904,-21.816257)"><g
     id="g396"
     transform="matrix(1.1871923,0,0,1.1871923,-166.85605,-112.78515)"><text
       xml:space="preserve"
       style="font-style:normal;font-variant:normal;font-weight:bold;font-stretch:normal;font-size:101.643px;line-height:1.25;font-family:Nunito;-inkscape-font-specification:'Nunito Bold';text-align:center;text-decoration-color:#000000;word-spacing:0px;text-anchor:middle;fill:#4b5d5d;fill-opacity:1;stroke-width:16.0068;stroke-linecap:round;stroke-linejoin:round;stop-color:#000000"
       x="672.93054"
       y="504.15045"
       id="text1295"><tspan
         sodipodi:role="line"
         x="672.93054"
         y="504.15045"
         id="tspan1297"
         style="font-style:normal;font-variant:normal;font-weight:bold;font-stretch:normal;font-family:Nunito;-inkscape-font-specification:'Nunito Bold';fill:#4b5d5d;fill-opacity:1;stroke-width:16.0068">Te Hablo,</tspan></text><text
       xml:space="preserve"
       style="font-style:normal;font-variant:normal;font-weight:bold;font-stretch:normal;font-size:100.643px;line-height:1.25;font-family:Nunito;-inkscape-font-specification:'Nunito Bold';text-align:center;text-decoration-color:#000000;word-spacing:0px;text-anchor:middle;fill:#4b5d5d;fill-opacity:1;stroke-width:15.8492;stroke-linecap:round;stroke-linejoin:round;stop-color:#000000"
       x="597.78589"
       y="601.50299"
       id="text1295-0"><tspan
         sodipodi:role="line"
         x="597.78589"
         y="601.50299"
         id="tspan1297-6"
         style="font-style:normal;font-variant:normal;font-weight:bold;font-stretch:normal;font-family:Nunito;-inkscape-font-specification:'Nunito Bold';fill:#4b5d5d;fill-opacity:1;stroke-width:15.8492">Me Escuchas</tspan></text></g></g></svg>
