<?xml version="1.0" encoding="UTF-8" standalone="no"?>
<svg
   version="1.1"
   id="Layer_1"
   x="0px"
   y="0px"
   width="842.33923"
   viewBox="0 0 842.33923 842.33923"
   enable-background="new 0 0 1024 1024"
   xml:space="preserve"
   sodipodi:docname="logo_white.svg"
   height="842.33923"
   inkscape:version="1.2.2 (b0a8486541, 2022-12-01)"
   inkscape:export-filename="logo.png"
   inkscape:export-xdpi="96"
   inkscape:export-ydpi="96"
   xmlns:inkscape="http://www.inkscape.org/namespaces/inkscape"
   xmlns:sodipodi="http://sodipodi.sourceforge.net/DTD/sodipodi-0.dtd"
   xmlns="http://www.w3.org/2000/svg"
   xmlns:svg="http://www.w3.org/2000/svg"><defs
   id="defs1005"><inkscape:path-effect
     effect="bspline"
     id="path-effect4210"
     is_visible="true"
     lpeversion="1"
     weight="33.333333"
     steps="2"
     helper_size="0"
     apply_no_weight="true"
     apply_with_weight="true"
     only_selected="false" /><inkscape:path-effect
     effect="bspline"
     id="path-effect4044"
     is_visible="true"
     lpeversion="1"
     weight="33.333333"
     steps="2"
     helper_size="0"
     apply_no_weight="true"
     apply_with_weight="true"
     only_selected="false" /></defs><sodipodi:namedview
   id="namedview1003"
   pagecolor="#ffffff"
   bordercolor="#000000"
   borderopacity="0.25"
   inkscape:showpageshadow="2"
   inkscape:pageopacity="0.0"
   inkscape:pagecheckerboard="0"
   inkscape:deskcolor="#d1d1d1"
   showgrid="false"
   inkscape:zoom="0.55004853"
   inkscape:cx="89.992059"
   inkscape:cy="285.42936"
   inkscape:window-width="1920"
   inkscape:window-height="1014"
   inkscape:window-x="1920"
   inkscape:window-y="1109"
   inkscape:window-maximized="1"
   inkscape:current-layer="Layer_1" />




















































































































































































































































































































































































































































































































<rect
   style="fill:#ffffff;stroke:none;stroke-width:24.292;stroke-linecap:round;stroke-linejoin:round;stop-color:#000000"
   id="rect503"
   width="842"
   height="842"
   x="0.1696167"
   y="0.1696167" /><path
   style="fill:#7ab7a9;stroke:none;fill-opacity:1"
   d="m 361.13805,282.71391 c 4.917,6.059 13.401,12.175 16.82,19.004 3.257,6.504 -2.699,11.575 -5.277,16.996 -5.688,11.961 -4.762,23.223 -18.543,29.677 -12.96196,6.07 -25.87296,1.704 -38.99996,5.084 -20.784,5.351 -27.812,29.67 -22.572,48.23899 12.667,44.884 59.11596,78.544 90.57196,110 8.844,8.844 18.05,17.254 27,25.985 4.176,4.075 9.061,6.949 10,13.015 -13.782,-0.294 -25.966,-10.723 -37,-17.997 -24.981,-16.469 -49.39496,-33.151 -72.99996,-51.579 C 226.0511,415.4939 139.1381,319.89691 139.1381,206.71391 c 0,-66.391 27.448,-132.543012 93,-158.550007 57.26799,-22.7203 142.00095,-8.5123 167.54695,54.549997 10.958,27.05201 -0.347,51.88801 4.714,79.00001 2.157,11.557 6.901,22.468 11.997,33 3.23,6.674 8.309,14.245 7.542,22 -1.675,16.947 -18.925,13.826 -28.389,21.938 -2.931,2.512 -0.975,11.85 -3.236,16.047 -5.927,11.002 -20.693,8.015 -31.175,8.015 m 7,-196.000012 c -8.045,31.018012 -26.67796,56.560012 -53.99996,73.772012 -23.322,14.691 -52.228,21.929 -65.74099,48.228 -19.518,37.987 -2.261,99.527 35.74099,120.651 8.831,4.909 21.102,4.504 31,5.424 10.172,0.946 20.102,3.537 30,-0.557 13.68896,-5.663 18.75696,-25.289 11.54596,-37.518 -3.076,-5.218 -12.42696,-15.363 -7.789,-21.772 4.939,-6.824 19.864,-1.928 27.184,-5.8 6.663,-3.524 1.35,-12.717 5.573,-18.384 6.477,-8.692 19.893,-5.213 25.014,-16.045 2.179,-4.61 -0.732,-8.91 -2.775,-12.999 -4.367,-8.74 -8.662,-17.562 -11.325,-27 -10.296,-36.493 8.096,-78.194 -24.428,-108.000012 m -4.999,92.788012 c 11.095,-0.341 12.157,17.767 0.998,18.045 -10.778,0.267 -12.062,-17.706 -0.998,-18.045"
   id="path3868"
   sodipodi:nodetypes="ccccccsccccsccccccscccccccccccccccccc" /><path
   style="fill:#eb938a;fill-opacity:1;stroke:none;stroke-opacity:1"
   d="m 470.698,490.82538 c 5.53177,-18.76465 7.22496,-31.46099 13.70286,-45.23549 6.69421,-14.2346 10.15162,-21.66228 19.91647,-31.51548 9.03918,-9.1209 14.76479,-13.3845 25.02105,-18.632 7.28103,-3.7253 8.7368,-5.852 6.28817,-9.1864 -0.89539,-1.2193 -4.18223,-2.2179 -10.78774,-3.2774 -11.4751,-1.8406 -20.25458,-5.7091 -26.00329,-11.4578 -4.63135,-4.6314 -8.92111,-13.0142 -9.72435,-19.0028 -0.43956,-3.2772 -0.04,-4.4525 2.60421,-7.6604 5.04251,-6.1174 4.21176,-8.518 -4.62657,-13.3691 -5.21962,-2.8649 -5.32655,-4.4476 -0.75,-11.1008 1.925,-2.7984 3.5,-5.7372 3.5,-6.5306 0,-0.7934 -1.8,-4.427 -4,-8.0747 -6.27932,-10.4112 -5.13081,-15.4143 3.86893,-16.8534 8.71616,-1.3937 11.69374,-6.7414 14.14559,-25.4049 1.63061,-12.4123 2.77902,-16.5842 7.03584,-25.5596 8.72379,-18.394 27.4416,-32.5767 51.5341,-39.048 10.65741,-2.8627 33.22844,-2.6487 43.91554,0.4162 43.6527,12.5191 69.3806,52.4875 60.7079,94.31 -5.3467,25.7834 -19.5652,47.6885 -40.0707,61.7331 -4.8973,3.3541 -9.1816,6.8215 -9.5207,7.7052 -1.2694,3.308 -0.5453,13.804 1.5335,22.2292 1.1826,4.7926 2.3158,8.9096 2.5184,9.1489 1.4219,1.6794 21.8284,-23.815 36.1332,-45.1424 22.6334,-33.7446 37.0357,-67.857 43.3994,-102.7926 2.8852,-15.8393 3.0961,-48.7799 0.4065,-63.5 -8.2045,-44.90499 -33.0316,-79.04549 -71.6075,-98.46989 -18.4571,-9.2938 -32.8848,-12.8914 -55,-13.7144 -42.20813,-1.5707 -73.83793,2.764184 -105.39315,33.13119 -25.06994,24.126 -32.24663,44.28661 -34.86928,66.82264 -2.00432,17.22274 -0.42553,22.95483 2.75696,37.23046 11.8233,53.03548 40.17969,69.40817 16.44019,122.42748 -23.73951,53.0193 -82.30539,32.07995 -109.51442,34.11674 -19.09485,1.42938 -34.37952,4.34858 -37.57509,11.57268 -3.11316,7.0379 -2.29051,19.4688 1.88976,28.556 9.8366,21.3829 33.44493,49.5015 76.49036,91.1036 33.87034,32.7346 44.80155,41.7235 50.73949,41.7235 1.73069,0 29.74059,-29.21625 34.89437,-46.69873 z m 57.68626,-197.75587 c 3.09383,-3.0938 3.25927,-8.2527 0.38197,-11.9106 -1.59866,-2.0323 -2.95404,-2.6348 -5.92742,-2.6348 -2.97338,0 -4.32876,0.6025 -5.92742,2.6348 -6.45029,8.2002 4.164,19.2195 11.47287,11.9106 z"
   id="path3958"
   sodipodi:nodetypes="ssssssssssssssssssssssssssssssszsssssssssss" /><g
   id="g3013"
   transform="rotate(21.88268,592.98527,145.66657)"><path
     style="fill:none;fill-opacity:1;stroke:#7ab7a9;stroke-width:15;stroke-linecap:round;stroke-linejoin:round;stroke-dasharray:none;stroke-opacity:1;stop-color:#000000"
     d="m 497.79392,326.0737 c 6.97191,12.05847 13.94326,24.11594 14.67126,35.41746 0.728,11.30152 -4.78689,21.84824 -10.30172,32.39486"
     id="path4042"
     inkscape:path-effect="#path-effect4044"
     inkscape:original-d="m 497.79392,326.0737 c 6.97265,12.05804 13.94399,24.11552 20.91404,36.17245 -5.51353,10.54718 -16.5445,31.63987 -16.5445,31.63987"
     sodipodi:nodetypes="ccc" /><path
     style="fill:none;fill-opacity:1;stroke:#7ab7a9;stroke-width:15;stroke-linecap:round;stroke-linejoin:round;stroke-dasharray:none;stroke-opacity:1;stop-color:#000000"
     d="m 472.45296,341.3285 c 4.08786,7.09036 8.17517,14.17977 8.63794,20.69829 0.46276,6.51852 -2.69856,12.46736 -5.85982,18.4161"
     id="path4208"
     inkscape:path-effect="#path-effect4210"
     inkscape:original-d="m 472.45296,341.3285 c 4.0886,7.08994 8.17591,14.17934 12.26191,21.26818 -3.15996,5.94929 -9.48379,17.84621 -9.48379,17.84621"
     sodipodi:nodetypes="ccc" /></g><text
   xml:space="preserve"
   style="font-style:normal;font-variant:normal;font-weight:bold;font-stretch:normal;font-size:135.847px;line-height:1.25;font-family:Nunito;-inkscape-font-specification:'Nunito Bold';text-align:center;text-decoration-color:#000000;word-spacing:0px;text-anchor:middle;fill:#4b5d5d;fill-opacity:1;stroke-width:21.3932;stroke-linecap:round;stroke-linejoin:round;stop-color:#000000"
   x="424.7016"
   y="675.06317"
   id="text1295"><tspan
     sodipodi:role="line"
     x="424.7016"
     y="675.06317"
     id="tspan1297"
     style="font-style:normal;font-variant:normal;font-weight:bold;font-stretch:normal;font-family:Nunito;-inkscape-font-specification:'Nunito Bold';fill:#4b5d5d;fill-opacity:1;stroke-width:21.3932">Te Hablo,</tspan></text><text
   xml:space="preserve"
   style="font-style:normal;font-variant:normal;font-weight:bold;font-stretch:normal;font-size:134.51px;line-height:1.25;font-family:Nunito;-inkscape-font-specification:'Nunito Bold';text-align:center;text-decoration-color:#000000;word-spacing:0px;text-anchor:middle;fill:#4b5d5d;fill-opacity:1;stroke-width:21.1826;stroke-linecap:round;stroke-linejoin:round;stop-color:#000000"
   x="418.21045"
   y="805.17566"
   id="text1295-0"><tspan
     sodipodi:role="line"
     x="418.21045"
     y="805.17566"
     id="tspan1297-6"
     style="font-style:normal;font-variant:normal;font-weight:bold;font-stretch:normal;font-family:Nunito;-inkscape-font-specification:'Nunito Bold';fill:#4b5d5d;fill-opacity:1;stroke-width:21.1826">Me Escuchas</tspan></text></svg>
